<svg width="1600" height="1000" viewBox="0 0 1600 1000" fill="none" xmlns="http://www.w3.org/2000/svg">
  <defs>
    <linearGradient id="bg3" x1="350" y1="160" x2="1450" y2="980" gradientUnits="userSpaceOnUse">
      <stop stop-color="#ECFEFF"/>
      <stop offset="0.45" stop-color="#EFF6FF"/>
      <stop offset="1" stop-color="#EEF2FF"/>
    </linearGradient>
    <filter id="shadow3" x="-30" y="-30" width="1660" height="1060" color-interpolation-filters="sRGB">
      <feDropShadow dx="0" dy="18" stdDeviation="18" flood-color="#0F172A" flood-opacity="0.20"/>
    </filter>
  </defs>

  <g filter="url(#shadow3)">
    <rect x="120" y="90" width="1360" height="820" rx="28" fill="#FFFFFF"/>
    <rect x="120" y="90" width="1360" height="64" rx="28" fill="#F1F5F9"/>
    <circle cx="164" cy="122" r="8" fill="#F87171"/>
    <circle cx="190" cy="122" r="8" fill="#FBBF24"/>
    <circle cx="216" cy="122" r="8" fill="#34D399"/>
    <rect x="560" y="108" width="480" height="28" rx="10" fill="#FFFFFF"/>
    <rect x="585" y="118" width="430" height="8" rx="4" fill="#CBD5E1"/>

    <!-- Main background -->
    <rect x="120" y="154" width="1360" height="756" fill="url(#bg3)"/>

    <!-- Sidebar -->
    <rect x="120" y="154" width="300" height="756" fill="#FFFFFF"/>
    <rect x="150" y="196" width="240" height="44" rx="16" fill="#0F172A"/>
    <g font-family="Segoe UI, Arial, sans-serif" font-size="16" font-weight="900" fill="#FFFFFF">
      <text x="372" y="224" text-anchor="end">'D*B/E</text>
    </g>
    <g font-family="Segoe UI, Arial, sans-serif" font-size="15" font-weight="700" fill="#334155">
      <text x="372" y="288" text-anchor="end">DH-) 'D*-CE</text>
      <text x="372" y="328" text-anchor="end">*/1J(</text>
      <text x="372" y="368" text-anchor="end">-3( 'DB3E</text>
      <text x="372" y="408" text-anchor="end">'E*-'F *,1J(J</text>
      <text x="372" y="448" text-anchor="end">E1',9) 'D#.7'!</text>
    </g>

    <!-- Content area -->
    <rect x="420" y="154" width="1060" height="756" fill="none"/>

    <!-- Header -->
    <g font-family="Segoe UI, Arial, sans-serif">
      <text x="1420" y="230" text-anchor="end" font-size="28" font-weight="900" fill="#0F172A">'D*B/E</text>
      <text x="1420" y="260" text-anchor="end" font-size="16" font-weight="700" fill="#475569">F81) 9DI #/'&C H,'G2J*C DD'E*-'F</text>
    </g>
    <rect x="1290" y="276" width="158" height="32" rx="16" fill="#FFFFFF" stroke="#E2E8F0"/>
    <g font-family="Segoe UI, Arial, sans-serif" font-size="13" font-weight="800" fill="#0F172A">
      <text x="1430" y="298" text-anchor="end">".1 30 JHE</text>
    </g>

    <!-- KPI row -->
    <g>
      <rect x="420" y="326" width="1028" height="140" rx="22" fill="#FFFFFF" stroke="#E2E8F0"/>
      <rect x="452" y="356" width="240" height="80" rx="18" fill="#FFFFFF" stroke="#E2E8F0"/>
      <rect x="714" y="356" width="240" height="80" rx="18" fill="#FFFFFF" stroke="#E2E8F0"/>
      <rect x="976" y="356" width="240" height="80" rx="18" fill="#FFFFFF" stroke="#E2E8F0"/>
      <rect x="1238" y="356" width="210" height="80" rx="18" fill="#FFFFFF" stroke="#E2E8F0"/>
    </g>
    <g font-family="Segoe UI, Arial, sans-serif">
      <text x="676" y="384" text-anchor="end" font-size="13" font-weight="800" fill="#64748B">*E* 'D%,'()</text>
      <text x="676" y="420" text-anchor="end" font-size="26" font-weight="900" fill="#0F172A">1847</text>
      <text x="938" y="384" text-anchor="end" font-size="13" font-weight="800" fill="#64748B">'D/B)</text>
      <text x="938" y="420" text-anchor="end" font-size="26" font-weight="900" fill="#0F172A">74%</text>
      <text x="1200" y="384" text-anchor="end" font-size="13" font-weight="800" fill="#64748B">,'G2J) 'D'E*-'F</text>
      <text x="1200" y="420" text-anchor="end" font-size="26" font-weight="900" fill="#0F172A">73%</text>
      <text x="1430" y="384" text-anchor="end" font-size="13" font-weight="800" fill="#64748B">'D#.7'!</text>
      <text x="1430" y="420" text-anchor="end" font-size="26" font-weight="900" fill="#0F172A">479</text>
    </g>

    <!-- Performance card -->
    <rect x="420" y="490" width="1028" height="380" rx="22" fill="#FFFFFF" stroke="#E2E8F0"/>
    <g font-family="Segoe UI, Arial, sans-serif">
      <text x="1420" y="540" text-anchor="end" font-size="18" font-weight="900" fill="#0F172A">'D#/'! -3( 'DB3E</text>
    </g>

    <!-- Bars -->
    <g font-family="Segoe UI, Arial, sans-serif" font-size="14" font-weight="800" fill="#334155">
      <text x="1420" y="600" text-anchor="end">BH'9/ 'DE1H1</text>
      <text x="1420" y="664" text-anchor="end">'D#HDHJ)</text>
      <text x="1420" y="728" text-anchor="end">%4'1'* 'DE1H1</text>
      <text x="1420" y="792" text-anchor="end">%/1'C 'DE.'71</text>
    </g>
    <rect x="520" y="588" width="780" height="16" rx="8" fill="#E2E8F0"/>
    <rect x="520" y="588" width="640" height="16" rx="8" fill="#10B981"/>
    <rect x="520" y="652" width="780" height="16" rx="8" fill="#E2E8F0"/>
    <rect x="520" y="652" width="530" height="16" rx="8" fill="#2563EB"/>
    <rect x="520" y="716" width="780" height="16" rx="8" fill="#E2E8F0"/>
    <rect x="520" y="716" width="600" height="16" rx="8" fill="#F59E0B"/>
    <rect x="520" y="780" width="780" height="16" rx="8" fill="#E2E8F0"/>
    <rect x="520" y="780" width="470" height="16" rx="8" fill="#EF4444"/>

    <g font-family="Segoe UI, Arial, sans-serif" font-size="13" font-weight="900" fill="#0F172A">
      <text x="1320" y="602" text-anchor="end">82%</text>
      <text x="1320" y="666" text-anchor="end">68%</text>
      <text x="1320" y="730" text-anchor="end">77%</text>
      <text x="1320" y="794" text-anchor="end">61%</text>
    </g>
  </g>
</svg>

